<svg xmlns="http://www.w3.org/2000/svg" width="16.649" height="16.649" viewBox="0 0 16.649 16.649">
  <g id="Group_5567" data-name="Group 5567" transform="translate(0 0)">
    <path id="Path_103143" data-name="Path 103143" d="M6.911,13.554a.537.537,0,0,0-.76,0L4.745,14.961a.537.537,0,0,0,.76.759l1.407-1.407A.537.537,0,0,0,6.911,13.554ZM3.094,9.737a.537.537,0,0,0-.759,0L.928,11.144a.537.537,0,1,0,.759.76L3.094,10.5a.537.537,0,0,0,0-.76ZM5.639,11.01a.537.537,0,0,0-.76,0L1.313,14.576a.537.537,0,0,0,.76.76l3.566-3.566A.537.537,0,0,0,5.639,11.01ZM16.622.7,11.533,16.279a.537.537,0,0,1-.975.1L7.135,10.5a.537.537,0,0,1,.033-.59L8.4,8.251,6.743,9.48a.537.537,0,0,1-.59.033L.267,6.091a.537.537,0,0,1,.1-.975L15.944.027A.538.538,0,0,1,16.622.7Z" transform="translate(0 0)" fill="#107eff"/>
  </g>
</svg>
